<?xml version="1.0" encoding="UTF-8" standalone="no"?><svg xmlns="http://www.w3.org/2000/svg" xmlns:xlink="http://www.w3.org/1999/xlink" style="isolation:isolate" viewBox="0 0 512 512" width="512" height="512"><line x1="256" y1="160" x2="256" y2="352" vector-effect="non-scaling-stroke" stroke-width="4" stroke="rgb(128,128,128)" stroke-linejoin="round" stroke-linecap="round"/><path d=" M 32 256 L 32 192 Q 31.5 128 96 128 Q 160.5 128 416 128 Q 480 125.25 480 192 Q 480 258.75 480 320 Q 478 384 416 384 Q 354 384 96 384 Q 32 386.5 32 320 Q 32 253.5 32 256 Z " fill="none"/><path d=" M 32 256 L 32 192 Q 31.5 128 96 128 Q 160.5 128 416 128 Q 480 125.25 480 192 Q 480 258.75 480 320 Q 478 384 416 384 Q 354 384 96 384 Q 32 386.5 32 320 Q 32 253.5 32 256 Z " fill="none"  vector-effect="non-scaling-stroke" stroke-width="4" stroke="rgb(0,0,0)" stroke-linejoin="round" stroke-linecap="round"/><line x1="176" y1="255.991" x2="112" y2="255.991" vector-effect="non-scaling-stroke" stroke-width="4" stroke="rgb(64,64,64)" stroke-linejoin="round" stroke-linecap="round"/><line x1="336" y1="255.991" x2="400" y2="255.991" vector-effect="non-scaling-stroke" stroke-width="4" stroke="rgb(64,64,64)" stroke-linejoin="round" stroke-linecap="round"/><line x1="368" y1="223.991" x2="368" y2="287.991" vector-effect="non-scaling-stroke" stroke-width="4" stroke="rgb(64,64,64)" stroke-linejoin="round" stroke-linecap="round"/></svg>