<?xml version="1.0" encoding="UTF-8" standalone="no"?><svg xmlns="http://www.w3.org/2000/svg" xmlns:xlink="http://www.w3.org/1999/xlink" style="isolation:isolate" viewBox="0 0 768 512" width="768" height="512"><line x1="496.004" y1="223.9" x2="496.004" y2="287.9" vector-effect="non-scaling-stroke" stroke-width="16" stroke="rgb(0,0,0)" stroke-linejoin="round" stroke-linecap="round"/><line x1="464.004" y1="255.9" x2="528.004" y2="255.9" vector-effect="non-scaling-stroke" stroke-width="16" stroke="rgb(0,0,0)" stroke-linejoin="round" stroke-linecap="round"/><line x1="304.004" y1="255.9" x2="240.004" y2="255.9" vector-effect="non-scaling-stroke" stroke-width="16" stroke="rgb(0,0,0)" stroke-linejoin="round" stroke-linecap="round"/><path d=" M 160.004 255.909 L 160.004 191.909 Q 159.504 127.909 224.004 127.909 Q 288.504 127.909 544.004 127.909 Q 608.004 125.159 608.004 191.909 Q 608.004 258.659 608.004 319.909 Q 606.004 383.909 544.004 383.909 Q 482.004 383.909 224.004 383.909 Q 160.004 386.409 160.004 319.909 Q 160.004 253.409 160.004 255.909 Z " fill="none"/><path d=" M 160.004 255.909 L 160.004 191.909 Q 159.504 127.909 224.004 127.909 Q 288.504 127.909 544.004 127.909 Q 608.004 125.159 608.004 191.909 Q 608.004 258.659 608.004 319.909 Q 606.004 383.909 544.004 383.909 Q 482.004 383.909 224.004 383.909 Q 160.004 386.409 160.004 319.909 Q 160.004 253.409 160.004 255.909 Z " fill="none"  vector-effect="non-scaling-stroke" stroke-width="16" stroke="rgb(64,64,64)" stroke-opacity="100" stroke-linejoin="round" stroke-linecap="round"/><line x1="384.004" y1="159.909" x2="384.004" y2="351.909"  vector-effect="non-scaling-stroke" stroke-width="16" stroke="rgb(128,128,128)" stroke-opacity="100" stroke-linejoin="round" stroke-linecap="round"/></svg>