<?xml version="1.0" encoding="UTF-8" standalone="no"?><svg xmlns="http://www.w3.org/2000/svg" xmlns:xlink="http://www.w3.org/1999/xlink" style="isolation:isolate" viewBox="0 0 512 512" width="512pt" height="512pt"><defs><clipPath id="_clipPath_wp0roV8dp09zppozLxQmOMCtLjcDkUDu"><rect width="512" height="512"/></clipPath></defs><g clip-path="url(#_clipPath_wp0roV8dp09zppozLxQmOMCtLjcDkUDu)"><!--<mask id="_mask_cG7XSlSt6ef7oI4d2WeEZj7I6FaLAwPD"><path d=" M 480 256 Q 480 131 352 128 L 160 128 Q 32 134 32 256 Q 32 378 160 384 L 352 384 Q 480 381 480 256 Z " fill="none" stroke="none"/></mask>--><path d=" M 480 256 Q 480 131 352 128 L 160 128 Q 32 134 32 256 Q 32 378 160 384 L 352 384 Q 480 381 480 256 Z " fill="none"/><path d=" M 480 256 Q 480 131 352 128 L 160 128 Q 32 134 32 256 Q 32 378 160 384 L 352 384 Q 480 381 480 256 Z " fill="none" mask="url(#_mask_cG7XSlSt6ef7oI4d2WeEZj7I6FaLAwPD)" vector-effect="non-scaling-stroke" stroke-width="16" stroke="rgb(0,0,0)" stroke-linejoin="miter" stroke-linecap="square" stroke-miterlimit="3"/></g></svg>