<?xml version="1.0" encoding="UTF-8" standalone="no"?><svg xmlns="http://www.w3.org/2000/svg" xmlns:xlink="http://www.w3.org/1999/xlink" style="isolation:isolate" viewBox="0 0 768 512" width="768" height="512"><circle vector-effect="non-scaling-stroke" cx="384" cy="256" r="96" fill="rgb(64,64,64)" stroke-width="16" stroke="rgb(64,64,64)" stroke-linejoin="round" stroke-linecap="butt" stroke-miterlimit="4"/><path d=" M 362.639 213.568 Q 350.928 204.166 341.526 213.568 Q 332.124 222.969 341.526 234.681 L 357.361 250.516 Q 363.134 255.299 357.361 261.072 Q 351.588 266.845 341.526 276.907 Q 331.794 288.288 341.526 298.02 Q 351.258 307.752 362.639 298.02 L 378.474 282.185 Q 383.753 276.907 389.031 282.185 Q 394.309 287.464 404.866 298.02 Q 415.257 308.742 425.979 298.02 Q 436.7 287.299 425.979 276.907 L 410.144 261.072 Q 405.031 255.629 410.144 250.516 Q 415.257 245.402 425.979 234.681 Q 435.876 223.464 425.979 213.568 Q 416.082 203.671 404.866 213.568 L 389.031 229.402 Q 383.588 234.516 378.474 229.402 Q 373.361 224.289 362.639 213.568 Z " fill="rgb(0,0,0)"/><path d=" M 362.639 213.568 Q 350.928 204.166 341.526 213.568 Q 332.124 222.969 341.526 234.681 L 357.361 250.516 Q 363.134 255.299 357.361 261.072 Q 351.588 266.845 341.526 276.907 Q 331.794 288.288 341.526 298.02 Q 351.258 307.752 362.639 298.02 L 378.474 282.185 Q 383.753 276.907 389.031 282.185 Q 394.309 287.464 404.866 298.02 Q 415.257 308.742 425.979 298.02 Q 436.7 287.299 425.979 276.907 L 410.144 261.072 Q 405.031 255.629 410.144 250.516 Q 415.257 245.402 425.979 234.681 Q 435.876 223.464 425.979 213.568 Q 416.082 203.671 404.866 213.568 L 389.031 229.402 Q 383.588 234.516 378.474 229.402 Q 373.361 224.289 362.639 213.568 Z " fill="rgb(0,0,0)"  vector-effect="non-scaling-stroke" stroke-width="16" stroke="rgb(0,0,0)" stroke-linejoin="round" stroke-linecap="round"/></svg>