<?xml version="1.0" encoding="UTF-8" standalone="no"?><svg xmlns="http://www.w3.org/2000/svg" xmlns:xlink="http://www.w3.org/1999/xlink" style="isolation:isolate" viewBox="0 0 768 512" width="768" height="512"><circle vector-effect="non-scaling-stroke" cx="384" cy="256" r="96" fill="rgb(64,64,64)" stroke-width="16" stroke="rgb(64,64,64)" stroke-linejoin="round" stroke-linecap="butt" stroke-miterlimit="4"/><path d=" M 349.964 246.362 Q 340.099 236.8 330.537 246.362 Q 320.975 255.924 330.537 265.79 L 359.678 294.931 Q 369.695 304.341 379.105 294.931 L 437.387 236.649 Q 447.101 226.935 437.387 217.221 Q 427.674 207.508 417.96 217.221 L 374.248 260.933 Q 369.391 265.79 364.535 260.933 L 349.964 246.362 Z " fill="rgb(0,0,0)"/><path d=" M 349.964 246.362 Q 340.099 236.8 330.537 246.362 Q 320.975 255.924 330.537 265.79 L 359.678 294.931 Q 369.695 304.341 379.105 294.931 L 437.387 236.649 Q 447.101 226.935 437.387 217.221 Q 427.674 207.508 417.96 217.221 L 374.248 260.933 Q 369.391 265.79 364.535 260.933 L 349.964 246.362 Z " fill="rgb(0,0,0)"  vector-effect="non-scaling-stroke" stroke-width="16" stroke="rgb(0,0,0)" stroke-linejoin="round" stroke-linecap="round"/></svg>