<?xml version="1.0" encoding="UTF-8" standalone="no"?><svg xmlns="http://www.w3.org/2000/svg" xmlns:xlink="http://www.w3.org/1999/xlink" style="isolation:isolate" viewBox="0 0 512 512" width="512" height="512"><circle vector-effect="non-scaling-stroke" cx="256" cy="256" r="96" fill="rgb(0,0,0)"/><path d=" M 234.639 213.568 Q 222.928 204.166 213.526 213.568 Q 204.124 222.969 213.526 234.681 L 229.361 250.516 Q 235.134 255.299 229.361 261.072 Q 223.588 266.845 213.526 276.907 Q 203.794 288.288 213.526 298.02 Q 223.258 307.752 234.639 298.02 L 250.474 282.185 Q 255.753 276.907 261.031 282.185 Q 266.309 287.464 276.866 298.02 Q 287.257 308.742 297.979 298.02 Q 308.7 287.299 297.979 276.907 L 282.144 261.072 Q 277.031 255.629 282.144 250.516 Q 287.257 245.402 297.979 234.681 Q 307.876 223.464 297.979 213.568 Q 288.082 203.671 276.866 213.568 L 261.031 229.402 Q 255.588 234.516 250.474 229.402 Q 245.361 224.289 234.639 213.568 Z " fill="rgb(64,64,64)"/></svg>