<?xml version="1.0" encoding="UTF-8" standalone="no"?><svg xmlns="http://www.w3.org/2000/svg" xmlns:xlink="http://www.w3.org/1999/xlink" style="isolation:isolate" viewBox="0 0 512 512" width="512pt" height="512pt"><defs><clipPath id="_clipPath_qElD3WiNr2Ajc1eItp5kjHFAnVsFFpQL"><rect width="512" height="512"/></clipPath></defs><g clip-path="url(#_clipPath_qElD3WiNr2Ajc1eItp5kjHFAnVsFFpQL)"><!--<mask id="_mask_BWQZMBvdCHMUpYIC5g8EQATYKPPzK3MS"><path d=" M 416 192 Q 368 216 368 272 Q 368 339.333 432 368 Q 408.667 420 392 440 C 372.686 463.177 353.333 480 336 480 C 318.667 480 308.667 464 264 464 C 235.333 464 220 480 192 480 C 164 480 136.667 446 120 424 C 103.333 402 72 330.667 72 280 C 72 203.333 130 152 160 152 C 188 152 204 176 248 176 C 274.667 176 296.667 152 336 152 C 348 152 396 154.667 416 192 Z " fill="none" stroke="none"/></mask>--><path d=" M 416 192 Q 368 216 368 272 Q 368 339.333 432 368 Q 408.667 420 392 440 C 372.686 463.177 353.333 480 336 480 C 318.667 480 308.667 464 264 464 C 235.333 464 220 480 192 480 C 164 480 136.667 446 120 424 C 103.333 402 72 330.667 72 280 C 72 203.333 130 152 160 152 C 188 152 204 176 248 176 C 274.667 176 296.667 152 336 152 C 348 152 396 154.667 416 192 Z " fill="none"/><path d=" M 416 192 Q 368 216 368 272 Q 368 339.333 432 368 Q 408.667 420 392 440 C 372.686 463.177 353.333 480 336 480 C 318.667 480 308.667 464 264 464 C 235.333 464 220 480 192 480 C 164 480 136.667 446 120 424 C 103.333 402 72 330.667 72 280 C 72 203.333 130 152 160 152 C 188 152 204 176 248 176 C 274.667 176 296.667 152 336 152 C 348 152 396 154.667 416 192 Z " fill="none" mask="url(#_mask_BWQZMBvdCHMUpYIC5g8EQATYKPPzK3MS)" vector-effect="non-scaling-stroke" stroke-width="12" stroke="rgb(0,0,0)" stroke-linejoin="miter" stroke-linecap="square" stroke-miterlimit="3"/><!--<mask id="_mask_oRkVJc1YH7QkDLtMFHJAzZbLmSBrXsMO"><path d=" M 248 144 C 246.25 115 260.249 84.195 272 72 C 287.719 55.688 319.5 40 336 40 C 336 58 322.301 88.772 312 104 C 306.25 112.5 275.25 139.75 264 144 C 249.25 149.25 248 145.5 248 144 Z " fill="none" stroke="none"/></mask>--><path d=" M 248 144 C 246.25 115 260.249 84.195 272 72 C 287.719 55.688 319.5 40 336 40 C 336 58 322.301 88.772 312 104 C 306.25 112.5 275.25 139.75 264 144 C 249.25 149.25 248 145.5 248 144 Z " fill="none"/><path d=" M 248 144 C 246.25 115 260.249 84.195 272 72 C 287.719 55.688 319.5 40 336 40 C 336 58 322.301 88.772 312 104 C 306.25 112.5 275.25 139.75 264 144 C 249.25 149.25 248 145.5 248 144 Z " fill="none" mask="url(#_mask_oRkVJc1YH7QkDLtMFHJAzZbLmSBrXsMO)" vector-effect="non-scaling-stroke" stroke-width="12" stroke="rgb(0,0,0)" stroke-linejoin="miter" stroke-linecap="square" stroke-miterlimit="3"/></g></svg>