<?xml version="1.0" encoding="UTF-8" standalone="no"?><svg xmlns="http://www.w3.org/2000/svg" xmlns:xlink="http://www.w3.org/1999/xlink" style="isolation:isolate" viewBox="0 0 512 512" width="512" height="512"><path d=" M 408 104 L 272 136 L 272 240 L 408 240 L 408 104 Z " fill="none"/><path d=" M 408 104 L 272 136 L 272 240 L 408 240 L 408 104 Z " fill="none"  vector-effect="non-scaling-stroke" stroke-width="36" stroke="rgb(0,0,0)" stroke-linejoin="miter" stroke-linecap="square"/><path d=" M 240 144 L 112 176 L 112 240 L 240 240 L 240 144 Z " fill="none"/><path d=" M 240 144 L 112 176 L 112 240 L 240 240 L 240 144 Z " fill="none"  vector-effect="non-scaling-stroke" stroke-width="36" stroke="rgb(64,64,64)" stroke-linejoin="miter" stroke-linecap="square"/><path d=" M 408 408 L 272 376 L 272 272 L 408 272 L 408 408 Z " fill="none"/><path d=" M 408 408 L 272 376 L 272 272 L 408 272 L 408 408 Z " fill="none"  vector-effect="non-scaling-stroke" stroke-width="36" stroke="rgb(128,128,128)" stroke-linejoin="miter" stroke-linecap="square"/><path d=" M 240 368 L 112 336 L 112 272 L 240 272 L 240 368 Z " fill="none"/><path d=" M 240 368 L 112 336 L 112 272 L 240 272 L 240 368 Z " fill="none"  vector-effect="non-scaling-stroke" stroke-width="36" stroke="rgb(192,192,192)" stroke-linejoin="miter" stroke-linecap="square"/></svg>