<?xml version="1.0" encoding="UTF-8" standalone="no"?><svg xmlns="http://www.w3.org/2000/svg" xmlns:xlink="http://www.w3.org/1999/xlink" style="isolation:isolate" viewBox="0 0 512 512" width="512pt" height="512pt"><defs><clipPath id="_clipPath_qYdcllMrLQryYQ94O1bw2lWKhz47iyC3"><rect width="512" height="512"/></clipPath></defs><g clip-path="url(#_clipPath_qYdcllMrLQryYQ94O1bw2lWKhz47iyC3)"><!--<mask id="_mask_ik63ZeteWH4PcUr5Z6d9kLz6A6trOX9m"><path d=" M 408 104 L 272 136 L 272 240 L 408 240 L 408 104 Z " fill="none" stroke="none"/></mask>--><path d=" M 408 104 L 272 136 L 272 240 L 408 240 L 408 104 Z " fill="none"/><path d=" M 408 104 L 272 136 L 272 240 L 408 240 L 408 104 Z " fill="none" mask="url(#_mask_ik63ZeteWH4PcUr5Z6d9kLz6A6trOX9m)" vector-effect="non-scaling-stroke" stroke-width="28" stroke="rgb(0,0,0)" stroke-linejoin="miter" stroke-linecap="square" stroke-miterlimit="3"/><!--<mask id="_mask_qQJIhy5eWUcQ9FpzHNxy6TN3C2xrvo6M"><path d=" M 240 144 L 112 176 L 112 240 L 240 240 L 240 144 Z " fill="none" stroke="none"/></mask>--><path d=" M 240 144 L 112 176 L 112 240 L 240 240 L 240 144 Z " fill="none"/><path d=" M 240 144 L 112 176 L 112 240 L 240 240 L 240 144 Z " fill="none" mask="url(#_mask_qQJIhy5eWUcQ9FpzHNxy6TN3C2xrvo6M)" vector-effect="non-scaling-stroke" stroke-width="28" stroke="rgb(64,64,64)" stroke-linejoin="miter" stroke-linecap="square" stroke-miterlimit="3"/><!--<mask id="_mask_9C78SbUP4lL8EfkBJupgohGeynuNy2Vc"><path d=" M 408 408 L 272 376 L 272 272 L 408 272 L 408 408 Z " fill="none" stroke="none"/></mask>--><path d=" M 408 408 L 272 376 L 272 272 L 408 272 L 408 408 Z " fill="none"/><path d=" M 408 408 L 272 376 L 272 272 L 408 272 L 408 408 Z " fill="none" mask="url(#_mask_9C78SbUP4lL8EfkBJupgohGeynuNy2Vc)" vector-effect="non-scaling-stroke" stroke-width="28" stroke="rgb(128,128,128)" stroke-linejoin="miter" stroke-linecap="square" stroke-miterlimit="3"/><!--<mask id="_mask_8Inwd1fD4I5CuIEL2udJHoiCx9Ob5N2s"><path d=" M 240 368 L 112 336 L 112 272 L 240 272 L 240 368 Z " fill="none" stroke="none"/></mask>--><path d=" M 240 368 L 112 336 L 112 272 L 240 272 L 240 368 Z " fill="none"/><path d=" M 240 368 L 112 336 L 112 272 L 240 272 L 240 368 Z " fill="none" mask="url(#_mask_8Inwd1fD4I5CuIEL2udJHoiCx9Ob5N2s)" vector-effect="non-scaling-stroke" stroke-width="28" stroke="rgb(192,192,192)" stroke-linejoin="miter" stroke-linecap="square" stroke-miterlimit="3"/></g></svg>