<?xml version="1.0" encoding="UTF-8" standalone="no"?><svg xmlns="http://www.w3.org/2000/svg" xmlns:xlink="http://www.w3.org/1999/xlink" style="isolation:isolate" viewBox="0 0 512 512" width="512" height="512"><path d=" M 64.287 416 Q 28.954 416 32.287 384 L 32.287 256 L 32.287 128 Q 32.287 96 64.287 96 Q 96.287 96 224.287 224 Q 254.287 258 224.287 288 Q 99.621 416 64.287 416 Z " fill="none"/><path d=" M 64.287 416 Q 28.954 416 32.287 384 L 32.287 256 L 32.287 128 Q 32.287 96 64.287 96 Q 96.287 96 224.287 224 Q 254.287 258 224.287 288 Q 99.621 416 64.287 416 Z " fill="none"  vector-effect="non-scaling-stroke" stroke-width="28" stroke="rgb(0,0,0)" stroke-linejoin="miter" stroke-linecap="square"/><path d=" M 303.575 416 Q 268.241 416 271.575 384 L 271.575 256 L 271.575 128 Q 271.575 96 303.575 96 Q 335.575 96 463.575 224 Q 493.575 258 463.575 288 Q 338.908 416 303.575 416 Z " fill="none"/><path d=" M 303.575 416 Q 268.241 416 271.575 384 L 271.575 256 L 271.575 128 Q 271.575 96 303.575 96 Q 335.575 96 463.575 224 Q 493.575 258 463.575 288 Q 338.908 416 303.575 416 Z " fill="none"  vector-effect="non-scaling-stroke" stroke-width="28" stroke="rgb(0,0,0)" stroke-linejoin="miter" stroke-linecap="square"/></svg>