<?xml version="1.0" encoding="UTF-8" standalone="no"?><svg xmlns="http://www.w3.org/2000/svg" xmlns:xlink="http://www.w3.org/1999/xlink" style="isolation:isolate" viewBox="0 0 768 512" width="768" height="512"><path d=" M 305.263 116.716 C 256.757 144.209 224 196.309 224 256 C 224 344.306 295.694 416 384 416 C 472.306 416 544 344.306 544 256 C 544 167.694 472.306 96 384 96" fill="none" vector-effect="non-scaling-stroke" stroke-width="16" stroke="rgb(64,64,64)" stroke-linejoin="round" stroke-linecap="round"/><path d=" M 416 96 L 416 48 L 352 96 L 416 144 L 416 96 Z " fill="rgb(64,64,64)" vector-effect="non-scaling-stroke" stroke-width="16" stroke="rgb(64,64,64)" stroke-linejoin="round" stroke-linecap="round"/><path d=" M 464 208 L 400 208 L 400 256 Q 419 248 432 248 C 445 248 464 254.5 464 280 C 464 305.5 443.25 312 432 312 C 431.513 312 431.023 311.987 430.528 311.961 C 418 311.961 406.25 307 400 296" fill="none" vector-effect="non-scaling-stroke" stroke-width="16" stroke="rgb(0,0,0)" stroke-linejoin="round" stroke-linecap="round"/><path d=" M 304 224 L 336 208 L 336 312" fill="none" vector-effect="non-scaling-stroke" stroke-width="16" stroke="rgb(0,0,0)" stroke-linejoin="round" stroke-linecap="round"/></svg>