<?xml version="1.0" encoding="UTF-8" standalone="no"?><svg xmlns="http://www.w3.org/2000/svg" xmlns:xlink="http://www.w3.org/1999/xlink" style="isolation:isolate" viewBox="0 0 768 512" width="768" height="512"><circle vector-effect="non-scaling-stroke" cx="384" cy="256" r="160" fill="rgb(128,128,128)"/><circle vector-effect="non-scaling-stroke" cx="384" cy="256" r="160" fill="rgb(128,128,128)"  stroke-width="16" stroke="rgb(128,128,128)" stroke-linejoin="round" stroke-linecap="round"/><path d=" M 311.833 256 Q 311.5 239.333 311.833 232 C 312.167 224.667 319.833 216 327.833 216 Q 335.833 216 399.833 216 L 399.833 192 L 431.833 216 L 399.833 240 L 399.833 216" fill="none" vector-effect="non-scaling-stroke" stroke-width="16" stroke="rgb(64,64,64)" stroke-linejoin="round" stroke-linecap="round"/><path d=" M 455.833 256 Q 456.167 272.667 455.833 280 C 455.5 287.333 447.833 296 439.833 296 Q 431.833 296 367.833 296 L 367.833 320 L 335.833 296 L 367.833 272 L 367.833 296" fill="none" vector-effect="non-scaling-stroke" stroke-width="16" stroke="rgb(64,64,64)" stroke-linejoin="round" stroke-linecap="round"/><path d=" M 399.833 192 L 399.833 240 L 431.833 216 L 399.833 192 Z " fill="rgb(64,64,64)"/><path d=" M 367.833 272 L 367.833 320 L 335.833 296 L 367.833 272 Z " fill="rgb(64,64,64)"/><path d=" M 439.833 204 L 455.833 192 L 455.833 232" fill="none" vector-effect="non-scaling-stroke" stroke-width="16" stroke="rgb(0,0,0)" stroke-linejoin="round" stroke-linecap="round"/></svg>