<?xml version="1.0" encoding="UTF-8" standalone="no"?><svg xmlns="http://www.w3.org/2000/svg" xmlns:xlink="http://www.w3.org/1999/xlink" style="isolation:isolate" viewBox="0 0 768 512" width="768" height="512"><circle vector-effect="non-scaling-stroke" cx="384" cy="256" r="160" fill="none"/><circle vector-effect="non-scaling-stroke" cx="384" cy="256" r="160" fill="none"  stroke-width="16" stroke="rgb(64,64,64)" stroke-linejoin="round" stroke-linecap="round"/><path d=" M 312.167 256 Q 311.833 239.333 312.167 232 C 312.5 224.667 320.167 216 328.167 216 Q 336.167 216 400.167 216 L 400.167 192 L 432.167 216 L 400.167 240 L 400.167 216" fill="none" vector-effect="non-scaling-stroke" stroke-width="16" stroke="rgb(0,0,0)" stroke-linejoin="round" stroke-linecap="round"/><path d=" M 456.167 256 Q 456.5 272.667 456.167 280 C 455.833 287.333 448.167 296 440.167 296 Q 432.167 296 368.167 296 L 368.167 320 L 336.167 296 L 368.167 272 L 368.167 296" fill="none" vector-effect="non-scaling-stroke" stroke-width="16" stroke="rgb(0,0,0)" stroke-linejoin="round" stroke-linecap="round"/><path d=" M 400.167 192 L 400.167 240 L 432.167 216 L 400.167 192 Z " fill="rgb(0,0,0)"/><path d=" M 368.167 272 L 368.167 320 L 336.167 296 L 368.167 272 Z " fill="rgb(0,0,0)"/></svg>