<?xml version="1.0" encoding="UTF-8" standalone="no"?><svg xmlns="http://www.w3.org/2000/svg" xmlns:xlink="http://www.w3.org/1999/xlink" style="isolation:isolate" viewBox="0 0 768 512" width="768" height="512"><path d=" M 240 256 Q 239.333 222.667 240 208 C 240.667 193.333 256 176 272 176 Q 288 176 416 176 L 416 128 L 480 176 L 416 224 L 416 176" fill="none" vector-effect="non-scaling-stroke" stroke-width="16" stroke="rgb(64,64,64)" stroke-linejoin="round" stroke-linecap="round"/><path d=" M 528 256 Q 528.667 289.333 528 304 C 527.333 318.667 512 336 496 336 Q 480 336 352 336 L 352 384 L 288 336 L 352 288 L 352 336" fill="none" vector-effect="non-scaling-stroke" stroke-width="16" stroke="rgb(64,64,64)" stroke-linejoin="round" stroke-linecap="round"/><path d=" M 416 128 L 416 224 L 480 176 L 416 128 Z " fill="rgb(64,64,64)"/><path d=" M 352 288 L 352 384 L 288 336 L 352 288 Z " fill="rgb(64,64,64)"/><path d=" M 496 152 L 528 128 L 528 208" fill="none" vector-effect="non-scaling-stroke" stroke-width="16" stroke="rgb(0,0,0)" stroke-linejoin="round" stroke-linecap="round"/></svg>