<?xml version="1.0" encoding="UTF-8" standalone="no"?><svg xmlns="http://www.w3.org/2000/svg" xmlns:xlink="http://www.w3.org/1999/xlink" style="isolation:isolate" viewBox="0 0 768 512" width="768" height="512"><path d=" M 224 176 L 272 176 Q 290 178 304 192 Q 318 206 416 320 Q 435.333 336 448 336 Q 460.667 336 480 336 L 480 384 L 544 336 L 480 288 L 480 336" fill="none" vector-effect="non-scaling-stroke" stroke-width="16" stroke="rgb(0,0,0)" stroke-linejoin="round" stroke-linecap="round"/><path d=" M 224 336 L 272 336 Q 290 334 304 320 Q 318 306 416 192 Q 435.333 176 448 176 Q 460.667 176 480 176 L 480 128 L 544 176 L 480 224 L 480 176" fill="none" vector-effect="non-scaling-stroke" stroke-width="16" stroke="rgb(0,0,0)" stroke-linejoin="round" stroke-linecap="round"/><path d=" M 544 176 L 480 128 L 480 224 L 544 176 Z " fill="rgb(0,0,0)"/><path d=" M 544 336 L 480 288 L 480 384 L 544 336 Z " fill="rgb(0,0,0)"/></svg>