<?xml version="1.0" encoding="UTF-8" standalone="no"?><svg xmlns="http://www.w3.org/2000/svg" xmlns:xlink="http://www.w3.org/1999/xlink" style="isolation:isolate" viewBox="0 0 768 512" width="768" height="512"><circle vector-effect="non-scaling-stroke" cx="384" cy="256" r="160" fill="rgb(64,64,64)"/><circle vector-effect="non-scaling-stroke" cx="384" cy="256" r="160" fill="rgb(64,64,64)"  stroke-width="16" stroke="rgb(64,64,64)" stroke-linejoin="round" stroke-linecap="round"/><path d=" M 304 216 L 328 216 Q 337 217 344 224 Q 351 231 400 288 Q 409.667 296 416 296 Q 422.333 296 432 296 L 432 320 L 464 296 L 432 272 L 432 296" fill="none" vector-effect="non-scaling-stroke" stroke-width="16" stroke="rgb(0,0,0)" stroke-linejoin="round" stroke-linecap="round"/><path d=" M 304 296 L 328 296 Q 337 295 344 288 Q 351 281 400 224 Q 409.667 216 416 216 Q 422.333 216 432 216 L 432 192 L 464 216 L 432 240 L 432 216" fill="none" vector-effect="non-scaling-stroke" stroke-width="16" stroke="rgb(0,0,0)" stroke-linejoin="round" stroke-linecap="round"/><path d=" M 464 216 L 432 192 L 432 240 L 464 216 Z " fill="rgb(0,0,0)"/><path d=" M 464 296 L 432 272 L 432 320 L 464 296 Z " fill="rgb(0,0,0)"/></svg>