<?xml version="1.0" encoding="UTF-8" standalone="no"?><svg xmlns="http://www.w3.org/2000/svg" xmlns:xlink="http://www.w3.org/1999/xlink" style="isolation:isolate" viewBox="0 0 768 512" width="768" height="512"><path d=" M 256 192 Q 224 193.667 224 224 Q 224 254.333 224 288 Q 225 320 256 320 Q 287 320 288 320 L 352 384 Q 384 319.667 384 256 Q 384 192.333 352 128 L 288 192 L 256 192 Z " fill="none"/><path d=" M 256 192 Q 224 193.667 224 224 Q 224 254.333 224 288 Q 225 320 256 320 Q 287 320 288 320 L 352 384 Q 384 319.667 384 256 Q 384 192.333 352 128 L 288 192 L 256 192 Z " fill="none"  vector-effect="non-scaling-stroke" stroke-width="16" stroke="rgb(0,0,0)" stroke-linejoin="round" stroke-linecap="round"/><path d=" M 480 112 Q 544 176.333 544 256 Q 544 335.667 480 400" fill="none" vector-effect="non-scaling-stroke" stroke-width="16" stroke="rgb(192,192,192)" stroke-linejoin="round" stroke-linecap="round"/><path d=" M 448 160 Q 488 208.5 488 256 Q 488 303.5 448 352" fill="none" vector-effect="non-scaling-stroke" stroke-width="16" stroke="rgb(128,128,128)" stroke-linejoin="round" stroke-linecap="round"/><path d=" M 416 208 Q 440 231.333 440 256 Q 440 280.667 416 304" fill="none" vector-effect="non-scaling-stroke" stroke-width="16" stroke="rgb(64,64,64)" stroke-linejoin="round" stroke-linecap="round"/></svg>