<?xml version="1.0" encoding="UTF-8" standalone="no"?><svg xmlns="http://www.w3.org/2000/svg" xmlns:xlink="http://www.w3.org/1999/xlink" style="isolation:isolate" viewBox="0 0 512 512" width="512" height="512"><path d=" M 128 192 Q 96 193.667 96 224 Q 96 254.333 96 288 Q 97 320 128 320 Q 159 320 160 320 L 224 384 Q 256 319.667 256 256 Q 256 192.333 224 128 L 160 192 L 128 192 Z " fill="none"/><path d=" M 128 192 Q 96 193.667 96 224 Q 96 254.333 96 288 Q 97 320 128 320 Q 159 320 160 320 L 224 384 Q 256 319.667 256 256 Q 256 192.333 224 128 L 160 192 L 128 192 Z " fill="none"  vector-effect="non-scaling-stroke" stroke-width="8" stroke="rgb(0,0,0)" stroke-linejoin="round" stroke-linecap="round"/><path d=" M 320 192 Q 352 225 352 256 Q 352 287 320 320" fill="none" vector-effect="non-scaling-stroke" stroke-width="8" stroke="rgb(64,64,64)" stroke-linejoin="round" stroke-linecap="round"/></svg>