<?xml version="1.0" encoding="UTF-8" standalone="no"?><svg xmlns="http://www.w3.org/2000/svg" xmlns:xlink="http://www.w3.org/1999/xlink" style="isolation:isolate" viewBox="0 0 768 512" width="768" height="512"><path d=" M 256 192 Q 224 193.667 224 224 Q 224 254.333 224 288 Q 225 320 256 320 Q 287 320 288 320 L 352 384 Q 384 319.667 384 256 Q 384 192.333 352 128 L 288 192 L 256 192 Z " fill="rgb(64,64,64)"/><path d=" M 256 192 Q 224 193.667 224 224 Q 224 254.333 224 288 Q 225 320 256 320 Q 287 320 288 320 L 352 384 Q 384 319.667 384 256 Q 384 192.333 352 128 L 288 192 L 256 192 Z " fill="rgb(64,64,64)"  vector-effect="non-scaling-stroke" stroke-width="16" stroke="rgb(64,64,64)" stroke-linejoin="round" stroke-linecap="round"/><line x1="448" y1="192" x2="320" y2="320"  vector-effect="non-scaling-stroke" stroke-width="16" stroke="rgb(0,0,0)" stroke-opacity="100" stroke-linejoin="round" stroke-linecap="round"/><line x1="320" y1="192" x2="448" y2="320"  vector-effect="non-scaling-stroke" stroke-width="16" stroke="rgb(0,0,0)" stroke-opacity="100" stroke-linejoin="round" stroke-linecap="round"/></svg>