<?xml version="1.0" encoding="UTF-8" standalone="no"?><svg xmlns="http://www.w3.org/2000/svg" xmlns:xlink="http://www.w3.org/1999/xlink" style="isolation:isolate" viewBox="0 0 512 512" width="512" height="512"><path d=" M 343.507 164.887 Q 317.344 145.795 298.253 164.887 Q 279.161 183.979 298.253 210.142 Q 342.27 256.634 298.253 300.652 Q 277.746 325.401 298.253 345.907 Q 318.759 366.413 343.507 345.907 Q 434.901 256.281 343.507 164.887 Z " fill="none"/><path d=" M 343.507 164.887 Q 317.344 145.795 298.253 164.887 Q 279.161 183.979 298.253 210.142 Q 342.27 256.634 298.253 300.652 Q 277.746 325.401 298.253 345.907 Q 318.759 366.413 343.507 345.907 Q 434.901 256.281 343.507 164.887 Z " fill="none"  vector-effect="non-scaling-stroke" stroke-width="28" stroke="rgb(64,64,64)" stroke-opacity="100" stroke-linejoin="miter" stroke-linecap="square"/><path d=" M 385.953 97.005 Q 361.911 75.791 340.698 97.005 Q 319.485 118.218 340.698 142.259 Q 451.007 258.225 340.698 368.534 Q 318.071 391.161 340.698 413.788 Q 363.326 436.416 385.953 413.788 Q 542.047 253.098 385.953 97.005 Z " fill="none"/><path d=" M 385.953 97.005 Q 361.911 75.791 340.698 97.005 Q 319.485 118.218 340.698 142.259 Q 451.007 258.225 340.698 368.534 Q 318.071 391.161 340.698 413.788 Q 363.326 436.416 385.953 413.788 Q 542.047 253.098 385.953 97.005 Z " fill="none"  vector-effect="non-scaling-stroke" stroke-width="28" stroke="rgb(128,128,128)" stroke-opacity="100" stroke-linejoin="miter" stroke-linecap="square"/><path d=" M 96 192 Q 64 190.75 64 224 Q 64 257.25 64 288 Q 65 320 96 320 Q 127 320 128 320 L 192 384 Q 209 399 224 384 C 239 369 256 316.25 256 256 C 256 195.75 240 144 224 128 Q 208 112 192 128 L 128 192 L 96 192 L 96 192 Z " fill="none"/><path d=" M 96 192 Q 64 190.75 64 224 Q 64 257.25 64 288 Q 65 320 96 320 Q 127 320 128 320 L 192 384 Q 209 399 224 384 C 239 369 256 316.25 256 256 C 256 195.75 240 144 224 128 Q 208 112 192 128 L 128 192 L 96 192 L 96 192 Z " fill="none"  vector-effect="non-scaling-stroke" stroke-width="28" stroke="rgb(0,0,0)" stroke-opacity="100" stroke-linejoin="miter" stroke-linecap="square"/></svg>