<?xml version="1.0" encoding="UTF-8" standalone="no"?><svg xmlns="http://www.w3.org/2000/svg" xmlns:xlink="http://www.w3.org/1999/xlink" style="isolation:isolate" viewBox="0 0 512 512" width="512" height="512"><path d=" M 232 383.625 Q 257.312 406.312 280 383.625 Q 302.687 360.937 304 359.625 Q 254.125 313.5 208 359.625 L 232 383.625 Z " fill="none"/><path d=" M 232 383.625 Q 257.312 406.312 280 383.625 Q 302.687 360.937 304 359.625 Q 254.125 313.5 208 359.625 L 232 383.625 Z " fill="none"  vector-effect="non-scaling-stroke" stroke-width="8" stroke="rgb(0,0,0)" stroke-opacity="10000" stroke-linejoin="round" stroke-linecap="round"/><path d=" M 184 335.625 Q 256.937 264.563 328 335.625 L 376 287.625 Q 255.812 167.813 136 287.625 L 184 335.625 Z " fill="none"/><path d=" M 184 335.625 Q 256.937 264.563 328 335.625 L 376 287.625 Q 255.812 167.813 136 287.625 L 184 335.625 Z " fill="none"  vector-effect="non-scaling-stroke" stroke-width="8" stroke="rgb(64,64,64)" stroke-opacity="10000" stroke-linejoin="round" stroke-linecap="round"/></svg>