<?xml version="1.0" encoding="UTF-8" standalone="no"?><!-- Generator: Gravit.io --><svg xmlns="http://www.w3.org/2000/svg" xmlns:xlink="http://www.w3.org/1999/xlink" style="isolation:isolate" viewBox="0 0 512 512" width="512pt" height="512pt"><defs><clipPath id="_clipPath_scIMksYtSfV3TlamFXZbHbfAjP2mlO9I"><rect width="512" height="512"/></clipPath></defs><g clip-path="url(#_clipPath_scIMksYtSfV3TlamFXZbHbfAjP2mlO9I)"><mask id="_mask_iEoWEHMa2ptkTaQTXyxYrFkZhS0ZC8Yk"><path d=" M 128 320 Q 64 318 64 256 Q 64 194 128 192 L 384 192 Q 448 191 448 256 Q 448 321 384 320 L 128 320 Z " fill="white" stroke="none"/></mask><path d=" M 128 320 Q 64 318 64 256 Q 64 194 128 192 L 384 192 Q 448 191 448 256 Q 448 321 384 320 L 128 320 Z " fill="none"/><path d=" M 128 320 Q 64 318 64 256 Q 64 194 128 192 L 384 192 Q 448 191 448 256 Q 448 321 384 320 L 128 320 Z " fill="none" mask="url(#_mask_iEoWEHMa2ptkTaQTXyxYrFkZhS0ZC8Yk)"  stroke-width="32" stroke="rgb(0,0,0)" stroke-linejoin="miter" stroke-linecap="square" stroke-miterlimit="3"/></g></svg>