<?xml version="1.0" encoding="UTF-8" standalone="no"?><svg xmlns="http://www.w3.org/2000/svg" xmlns:xlink="http://www.w3.org/1999/xlink" style="isolation:isolate" viewBox="0 0 768 512" width="768" height="512"><path d=" M 360 383.625 Q 385.312 406.312 408 383.625 Q 430.687 360.937 432 359.625 Q 382.125 313.5 336 359.625 L 360 383.625 Z " fill="none"/><path d=" M 360 383.625 Q 385.312 406.312 408 383.625 Q 430.687 360.937 432 359.625 Q 382.125 313.5 336 359.625 L 360 383.625 Z " fill="none"  vector-effect="non-scaling-stroke" stroke-width="16" stroke="rgb(0,0,0)" stroke-opacity="1000000" stroke-linejoin="round" stroke-linecap="round"/><path d=" M 312 335.625 Q 384.937 264.563 456 335.625 L 504 287.625 Q 383.812 167.813 264 287.625 L 312 335.625 Z " fill="none"/><path d=" M 312 335.625 Q 384.937 264.563 456 335.625 L 504 287.625 Q 383.812 167.813 264 287.625 L 312 335.625 Z " fill="none"  vector-effect="non-scaling-stroke" stroke-width="16" stroke="rgb(64,64,64)" stroke-opacity="1000000" stroke-linejoin="round" stroke-linecap="round"/></svg>