<?xml version="1.0" encoding="UTF-8" standalone="no"?><svg xmlns="http://www.w3.org/2000/svg" xmlns:xlink="http://www.w3.org/1999/xlink" style="isolation:isolate" viewBox="0 0 512 512" width="512" height="512"><path d=" M 64 256 L 64 128 Q 68 64 128 64 Q 188 64 384 64 Q 448 65 448 128 Q 448 191 448 384 Q 445 448 384 448 Q 323 448 128 448 Q 64 444 64 384 Q 64 324 64 256 Z " fill="none"/><path d=" M 64 256 L 64 128 Q 68 64 128 64 Q 188 64 384 64 Q 448 65 448 128 Q 448 191 448 384 Q 445 448 384 448 Q 323 448 128 448 Q 64 444 64 384 Q 64 324 64 256 Z " fill="none"  vector-effect="non-scaling-stroke" stroke-width="24" stroke="rgb(0,0,0)" stroke-linejoin="round" stroke-linecap="round"/></svg>