<?xml version="1.0" encoding="UTF-8" standalone="no"?><svg xmlns="http://www.w3.org/2000/svg" xmlns:xlink="http://www.w3.org/1999/xlink" style="isolation:isolate" viewBox="0 0 512 512" width="512" height="512"><path d=" M 64 256 L 64 128 Q 68 64 128 64 Q 188 64 384 64 Q 448 65 448 128 Q 448 191 448 384 Q 445 448 384 448 Q 323 448 128 448 Q 64 444 64 384 Q 64 324 64 256 Z " fill="none"/><path d=" M 64 256 L 64 128 Q 68 64 128 64 Q 188 64 384 64 Q 448 65 448 128 Q 448 191 448 384 Q 445 448 384 448 Q 323 448 128 448 Q 64 444 64 384 Q 64 324 64 256 Z " fill="none"  vector-effect="non-scaling-stroke" stroke-width="12" stroke="rgb(64,64,64)" stroke-linejoin="round" stroke-linecap="round"/><path d=" M 128 192 Q 128 128 192 128 Q 256 128 320 128 Q 384 128 384 192 Q 384 256 384 320 Q 383 384 320 384 Q 257 384 192 384 Q 128 380 128 320 Q 128 260 128 192 Z " fill="rgb(0,0,0)"/></svg>