<?xml version="1.0" encoding="UTF-8" standalone="no"?><svg xmlns="http://www.w3.org/2000/svg" xmlns:xlink="http://www.w3.org/1999/xlink" style="isolation:isolate" viewBox="0 0 512 512" width="512pt" height="512pt"><defs><clipPath id="_clipPath_lXCoB0sJgK8QPK1BsIo7B3CQzB6OylSZ"><rect width="512" height="512"/></clipPath></defs><g clip-path="url(#_clipPath_lXCoB0sJgK8QPK1BsIo7B3CQzB6OylSZ)"><!--<mask id="_mask_U9aUBjsJBtIasFPDHAXGEzyxgqY8CvsS"><path d=" M 446.287 416 Q 481.621 416 478.287 384 L 478.287 256 L 478.287 128 Q 478.287 96 446.287 96 Q 414.287 96 286.287 224 Q 256.287 258 286.287 288 Q 410.954 416 446.287 416 Z " fill="none" stroke="none"/></mask>--><path d=" M 446.287 416 Q 481.621 416 478.287 384 L 478.287 256 L 478.287 128 Q 478.287 96 446.287 96 Q 414.287 96 286.287 224 Q 256.287 258 286.287 288 Q 410.954 416 446.287 416 Z " fill="none"/><path d=" M 446.287 416 Q 481.621 416 478.287 384 L 478.287 256 L 478.287 128 Q 478.287 96 446.287 96 Q 414.287 96 286.287 224 Q 256.287 258 286.287 288 Q 410.954 416 446.287 416 Z " fill="none" mask="url(#_mask_U9aUBjsJBtIasFPDHAXGEzyxgqY8CvsS)" vector-effect="non-scaling-stroke" stroke-width="20" stroke="rgb(0,0,0)" stroke-linejoin="miter" stroke-linecap="square" stroke-miterlimit="3"/><!--<mask id="_mask_iCS6rVvlgdOfdgIpifNIqbyqwGQyUMBA"><path d=" M 207 416 Q 242.333 416 239 384 L 239 256 L 239 128 Q 239 96 207 96 Q 175 96 47 224 Q 17 258 47 288 Q 171.667 416 207 416 Z " fill="none" stroke="none"/></mask>--><path d=" M 207 416 Q 242.333 416 239 384 L 239 256 L 239 128 Q 239 96 207 96 Q 175 96 47 224 Q 17 258 47 288 Q 171.667 416 207 416 Z " fill="none"/><path d=" M 207 416 Q 242.333 416 239 384 L 239 256 L 239 128 Q 239 96 207 96 Q 175 96 47 224 Q 17 258 47 288 Q 171.667 416 207 416 Z " fill="none" mask="url(#_mask_iCS6rVvlgdOfdgIpifNIqbyqwGQyUMBA)" vector-effect="non-scaling-stroke" stroke-width="20" stroke="rgb(0,0,0)" stroke-linejoin="miter" stroke-linecap="square" stroke-miterlimit="3"/></g></svg>