<?xml version="1.0" encoding="UTF-8" standalone="no"?><svg xmlns="http://www.w3.org/2000/svg" xmlns:xlink="http://www.w3.org/1999/xlink" style="isolation:isolate" viewBox="0 0 512 512" width="512" height="512"><path d=" M 446.287 416 Q 481.621 416 478.287 384 L 478.287 256 L 478.287 128 Q 478.287 96 446.287 96 Q 414.287 96 286.287 224 Q 256.287 258 286.287 288 Q 410.954 416 446.287 416 Z " fill="none"/><path d=" M 446.287 416 Q 481.621 416 478.287 384 L 478.287 256 L 478.287 128 Q 478.287 96 446.287 96 Q 414.287 96 286.287 224 Q 256.287 258 286.287 288 Q 410.954 416 446.287 416 Z " fill="none"  vector-effect="non-scaling-stroke" stroke-width="32" stroke="rgb(0,0,0)" stroke-linejoin="miter" stroke-linecap="square"/><path d=" M 207 416 Q 242.333 416 239 384 L 239 256 L 239 128 Q 239 96 207 96 Q 175 96 47 224 Q 17 258 47 288 Q 171.667 416 207 416 Z " fill="none"/><path d=" M 207 416 Q 242.333 416 239 384 L 239 256 L 239 128 Q 239 96 207 96 Q 175 96 47 224 Q 17 258 47 288 Q 171.667 416 207 416 Z " fill="none"  vector-effect="non-scaling-stroke" stroke-width="32" stroke="rgb(0,0,0)" stroke-linejoin="miter" stroke-linecap="square"/></svg>