<?xml version="1.0" encoding="UTF-8" standalone="no"?><svg xmlns="http://www.w3.org/2000/svg" xmlns:xlink="http://www.w3.org/1999/xlink" style="isolation:isolate" viewBox="0 0 512 512" width="512" height="512"><path d=" M 288 64 C 280.75 64 152.75 280.75 160 288 C 167.25 295.25 256 281 256 288 C 256 295 216.5 448 224 448 C 231.5 448 359.5 231.5 352 224 C 344.5 216.5 256 230.75 256 224 C 256 217.25 295.25 64 288 64 Z " fill="none"/><path d=" M 288 64 C 280.75 64 152.75 280.75 160 288 C 167.25 295.25 256 281 256 288 C 256 295 216.5 448 224 448 C 231.5 448 359.5 231.5 352 224 C 344.5 216.5 256 230.75 256 224 C 256 217.25 295.25 64 288 64 Z " fill="none"  vector-effect="non-scaling-stroke" stroke-width="24" stroke="rgb(0,0,0)" stroke-linejoin="round" stroke-linecap="round"/></svg>