<?xml version="1.0" encoding="UTF-8" standalone="no"?><svg xmlns="http://www.w3.org/2000/svg" xmlns:xlink="http://www.w3.org/1999/xlink" style="isolation:isolate" viewBox="0 0 512 512" width="512pt" height="512pt"><defs><clipPath id="_clipPath_HEy1mdk8Gcva77SF4KFUNLJjFyOthsSc"><rect width="512" height="512"/></clipPath></defs><g clip-path="url(#_clipPath_HEy1mdk8Gcva77SF4KFUNLJjFyOthsSc)"><!--<mask id="_mask_mGWe1ILlCaRmrWLAZbuiVaEw1bsdSPWz" x="-200%" y="-200%" width="400%" height="400%"><rect x="-200%" y="-200%" width="400%" height="400%" style="fill:white;"/><path d=" M 167.992 282.302 Q 146.972 267.713 133.161 291.635 Q 119.351 315.556 142.494 326.465 L 230.82 377.46 Q 253.698 388.828 265.65 368.127 Q 277.602 347.426 380.389 169.394 Q 390.837 145.984 371.056 134.564 Q 351.275 123.143 336.226 143.897 L 234.236 320.548 L 167.992 282.302 Z " fill="none" stroke="none"/></mask>--><path d=" M 167.992 282.302 Q 146.972 267.713 133.161 291.635 Q 119.351 315.556 142.494 326.465 L 230.82 377.46 Q 253.698 388.828 265.65 368.127 Q 277.602 347.426 380.389 169.394 Q 390.837 145.984 371.056 134.564 Q 351.275 123.143 336.226 143.897 L 234.236 320.548 L 167.992 282.302 Z " fill="none"/><path d=" M 167.992 282.302 Q 146.972 267.713 133.161 291.635 Q 119.351 315.556 142.494 326.465 L 230.82 377.46 Q 253.698 388.828 265.65 368.127 Q 277.602 347.426 380.389 169.394 Q 390.837 145.984 371.056 134.564 Q 351.275 123.143 336.226 143.897 L 234.236 320.548 L 167.992 282.302 Z " fill="none" mask="url(#_mask_mGWe1ILlCaRmrWLAZbuiVaEw1bsdSPWz)" vector-effect="non-scaling-stroke" stroke-width="12" stroke="rgb(0,0,0)" stroke-opacity="100" stroke-linejoin="miter" stroke-linecap="square" stroke-miterlimit="3"/></g></svg>