<?xml version="1.0" encoding="UTF-8" standalone="no"?><svg xmlns="http://www.w3.org/2000/svg" xmlns:xlink="http://www.w3.org/1999/xlink" style="isolation:isolate" viewBox="0 0 512 512" width="512pt" height="512pt"><defs><clipPath id="_clipPath_3L22mDsUxwX547spqXUZZDOzBfrU9lYg"><rect width="512" height="512"/></clipPath></defs><g clip-path="url(#_clipPath_3L22mDsUxwX547spqXUZZDOzBfrU9lYg)"><!--<mask id="_mask_TfMM5VckktCvb7GXzonfkuk9BIzxOboW" x="-200%" y="-200%" width="400%" height="400%"><rect x="-200%" y="-200%" width="400%" height="400%" style="fill:white;"/><path d=" M 165.49 165.49 Q 185.289 145.691 210.745 165.49 L 256 210.745 L 301.255 165.49 Q 325.296 144.277 346.51 165.49 Q 367.723 186.704 346.51 210.745 L 301.255 256 L 346.51 301.255 Q 367.723 325.296 346.51 346.51 Q 325.296 367.723 301.255 346.51 L 256 301.255 L 210.745 346.51 Q 187.411 368.43 165.49 346.51 Q 143.57 324.589 165.49 301.255 L 210.745 256 L 165.49 210.745 Q 145.691 185.289 165.49 165.49 Z " fill="none" stroke="none"/></mask>--><path d=" M 165.49 165.49 Q 185.289 145.691 210.745 165.49 L 256 210.745 L 301.255 165.49 Q 325.296 144.277 346.51 165.49 Q 367.723 186.704 346.51 210.745 L 301.255 256 L 346.51 301.255 Q 367.723 325.296 346.51 346.51 Q 325.296 367.723 301.255 346.51 L 256 301.255 L 210.745 346.51 Q 187.411 368.43 165.49 346.51 Q 143.57 324.589 165.49 301.255 L 210.745 256 L 165.49 210.745 Q 145.691 185.289 165.49 165.49 Z " fill="none"/><path d=" M 165.49 165.49 Q 185.289 145.691 210.745 165.49 L 256 210.745 L 301.255 165.49 Q 325.296 144.277 346.51 165.49 Q 367.723 186.704 346.51 210.745 L 301.255 256 L 346.51 301.255 Q 367.723 325.296 346.51 346.51 Q 325.296 367.723 301.255 346.51 L 256 301.255 L 210.745 346.51 Q 187.411 368.43 165.49 346.51 Q 143.57 324.589 165.49 301.255 L 210.745 256 L 165.49 210.745 Q 145.691 185.289 165.49 165.49 Z " fill="none" mask="url(#_mask_TfMM5VckktCvb7GXzonfkuk9BIzxOboW)" vector-effect="non-scaling-stroke" stroke-width="24" stroke="rgb(0,0,0)" stroke-opacity="100" stroke-linejoin="miter" stroke-linecap="square" stroke-miterlimit="3"/></g></svg>