<?xml version="1.0" encoding="UTF-8" standalone="no"?><svg xmlns="http://www.w3.org/2000/svg" xmlns:xlink="http://www.w3.org/1999/xlink" style="isolation:isolate" viewBox="0 0 512 512" width="512" height="512"><path d=" M 128.667 384 Q 123.333 416 160.667 416 Q 198 416 352.667 416 Q 384.667 415.333 384.667 384 Q 384.667 352.667 352.667 352 L 160.667 352 Q 128.667 350 128.667 384 Z " fill="none"/><path d=" M 128.667 384 Q 123.333 416 160.667 416 Q 198 416 352.667 416 Q 384.667 415.333 384.667 384 Q 384.667 352.667 352.667 352 L 160.667 352 Q 128.667 350 128.667 384 Z " fill="none"  vector-effect="non-scaling-stroke" stroke-width="32" stroke="rgb(0,0,0)" stroke-linejoin="miter" stroke-linecap="square"/><path d=" M 128.667 271.667 Q 129.333 303.667 160.667 303.667 Q 192 303.667 352.667 303.667 Q 384.667 302.333 384.667 271.667 Q 384.667 257 288.667 111.667 Q 256 80.333 224.667 111.667 Q 128.667 257.667 128.667 271.667 Z " fill="none"/><path d=" M 128.667 271.667 Q 129.333 303.667 160.667 303.667 Q 192 303.667 352.667 303.667 Q 384.667 302.333 384.667 271.667 Q 384.667 257 288.667 111.667 Q 256 80.333 224.667 111.667 Q 128.667 257.667 128.667 271.667 Z " fill="none"  vector-effect="non-scaling-stroke" stroke-width="32" stroke="rgb(0,0,0)" stroke-linejoin="miter" stroke-linecap="square"/></svg>