<?xml version="1.0" encoding="UTF-8" standalone="no"?><svg xmlns="http://www.w3.org/2000/svg" xmlns:xlink="http://www.w3.org/1999/xlink" style="isolation:isolate" viewBox="0 0 512 512" width="512pt" height="512pt"><defs><clipPath id="_clipPath_DiQnkv41GFinUSzctRGsw6tyGt75tC4U"><rect width="512" height="512"/></clipPath></defs><g clip-path="url(#_clipPath_DiQnkv41GFinUSzctRGsw6tyGt75tC4U)"><!--<mask id="_mask_QZeNrJnzDjlu5HFpocc9f78JkoKW7Ynh"><path d=" M 64.287 416 Q 28.954 416 32.287 384 L 32.287 256 L 32.287 128 Q 32.287 96 64.287 96 Q 96.287 96 224.287 224 Q 254.287 258 224.287 288 Q 99.621 416 64.287 416 Z " fill="none" stroke="none"/></mask>--><path d=" M 64.287 416 Q 28.954 416 32.287 384 L 32.287 256 L 32.287 128 Q 32.287 96 64.287 96 Q 96.287 96 224.287 224 Q 254.287 258 224.287 288 Q 99.621 416 64.287 416 Z " fill="none"/><path d=" M 64.287 416 Q 28.954 416 32.287 384 L 32.287 256 L 32.287 128 Q 32.287 96 64.287 96 Q 96.287 96 224.287 224 Q 254.287 258 224.287 288 Q 99.621 416 64.287 416 Z " fill="none" mask="url(#_mask_QZeNrJnzDjlu5HFpocc9f78JkoKW7Ynh)" vector-effect="non-scaling-stroke" stroke-width="62" stroke="rgb(0,0,0)" stroke-linejoin="miter" stroke-linecap="square" stroke-miterlimit="3"/><!--<mask id="_mask_lidX0Oy6dxj0ZQz00gquIoKj9zGx63wJ"><path d=" M 303.575 416 Q 268.241 416 271.575 384 L 271.575 256 L 271.575 128 Q 271.575 96 303.575 96 Q 335.575 96 463.575 224 Q 493.575 258 463.575 288 Q 338.908 416 303.575 416 Z " fill="none" stroke="none"/></mask>--><path d=" M 303.575 416 Q 268.241 416 271.575 384 L 271.575 256 L 271.575 128 Q 271.575 96 303.575 96 Q 335.575 96 463.575 224 Q 493.575 258 463.575 288 Q 338.908 416 303.575 416 Z " fill="none"/><path d=" M 303.575 416 Q 268.241 416 271.575 384 L 271.575 256 L 271.575 128 Q 271.575 96 303.575 96 Q 335.575 96 463.575 224 Q 493.575 258 463.575 288 Q 338.908 416 303.575 416 Z " fill="none" mask="url(#_mask_lidX0Oy6dxj0ZQz00gquIoKj9zGx63wJ)" vector-effect="non-scaling-stroke" stroke-width="62" stroke="rgb(0,0,0)" stroke-linejoin="miter" stroke-linecap="square" stroke-miterlimit="3"/></g></svg>