<?xml version="1.0" encoding="UTF-8" standalone="no"?><svg xmlns="http://www.w3.org/2000/svg" xmlns:xlink="http://www.w3.org/1999/xlink" style="isolation:isolate" viewBox="0 0 512 512" width="512pt" height="512pt"><defs><clipPath id="_clipPath_dFgA84inSakCNnH6vWofuEsZZeAjv5sw"><rect width="512" height="512"/></clipPath></defs><g clip-path="url(#_clipPath_dFgA84inSakCNnH6vWofuEsZZeAjv5sw)"><!--<mask id="_mask_fua89JQvypE8t3Gr1jmhBd7fvUaEcgYg"><path d=" M 160 416 Q 124.667 416 128 384 L 128 256 L 128 128 Q 128 96 160 96 Q 192 96 320 224 Q 350 258 320 288 Q 195.333 416 160 416 Z " fill="none" stroke="none"/></mask>--><path d=" M 160 416 Q 124.667 416 128 384 L 128 256 L 128 128 Q 128 96 160 96 Q 192 96 320 224 Q 350 258 320 288 Q 195.333 416 160 416 Z " fill="none"/><path d=" M 160 416 Q 124.667 416 128 384 L 128 256 L 128 128 Q 128 96 160 96 Q 192 96 320 224 Q 350 258 320 288 Q 195.333 416 160 416 Z " fill="none" mask="url(#_mask_fua89JQvypE8t3Gr1jmhBd7fvUaEcgYg)" vector-effect="non-scaling-stroke" stroke-width="56" stroke="rgb(0,0,0)" stroke-linejoin="miter" stroke-linecap="square" stroke-miterlimit="3"/></g></svg>