<?xml version="1.0" encoding="UTF-8" standalone="no"?><svg xmlns="http://www.w3.org/2000/svg" xmlns:xlink="http://www.w3.org/1999/xlink" style="isolation:isolate" viewBox="0 0 512 512" width="512pt" height="512pt"><defs><clipPath id="_clipPath_mgX9jhsvd9AqBJRzHFQMaErUGubKHs7b"><rect width="512" height="512"/></clipPath></defs><g clip-path="url(#_clipPath_mgX9jhsvd9AqBJRzHFQMaErUGubKHs7b)"><!--<mask id="_mask_ThklKRuInfwnLFkQCB4YVvNV1pxWmY5M"><circle cx="256" cy="256" r="192" fill="none" stroke="none"/></mask>--><circle cx="256" cy="256" r="192" fill="none"/><circle cx="256" cy="256" r="192" fill="none" mask="url(#_mask_ThklKRuInfwnLFkQCB4YVvNV1pxWmY5M)" stroke-width="32" stroke="rgb(64,64,64)" stroke-linejoin="miter" stroke-linecap="square" stroke-miterlimit="3"/><path d=" M 160 288 Q 128 286 128 256 Q 128 226 160 224 L 224 224 L 224 160 Q 226 128 256 128 Q 286 128 288 160 L 288 224 L 352 224 Q 384 227 384 256 Q 384 285 352 288 L 288 288 L 288 352 Q 285 384 256 384 Q 227 384 224 352 L 224 288 L 160 288 Z " fill="rgb(0,0,0)"/></g></svg>