<?xml version="1.0" encoding="UTF-8" standalone="no"?><svg xmlns="http://www.w3.org/2000/svg" xmlns:xlink="http://www.w3.org/1999/xlink" style="isolation:isolate" viewBox="0 0 512 512" width="512pt" height="512pt"><defs><clipPath id="_clipPath_6J6GnL3UMLclDDIA58JxYEjQWHpgMkmm"><rect width="512" height="512"/></clipPath></defs><g clip-path="url(#_clipPath_6J6GnL3UMLclDDIA58JxYEjQWHpgMkmm)"><!--<mask id="_mask_v4ga5R2Uljf4AVUZ6Pn9dFNiTVEGhJRm"><path d=" M 110.667 256 Q 78.667 254.667 78.667 224 Q 78.667 193.333 78.667 160 Q 82 128 110.667 128 Q 139.333 128 270.667 128 L 270.667 96 Q 273.333 64 302.667 64 Q 312.667 64 398.667 128 Q 433.333 157.333 398.667 192 C 364 226.667 319.333 256 302.667 256 Q 271.333 256 270.667 224 L 270.667 192 L 174.667 192 Q 142.667 193.333 142.667 224 Q 142.667 254.667 110.667 256 Z " fill="none" stroke="none"/></mask>--><path d=" M 110.667 256 Q 78.667 254.667 78.667 224 Q 78.667 193.333 78.667 160 Q 82 128 110.667 128 Q 139.333 128 270.667 128 L 270.667 96 Q 273.333 64 302.667 64 Q 312.667 64 398.667 128 Q 433.333 157.333 398.667 192 C 364 226.667 319.333 256 302.667 256 Q 271.333 256 270.667 224 L 270.667 192 L 174.667 192 Q 142.667 193.333 142.667 224 Q 142.667 254.667 110.667 256 Z " fill="none"/><path d=" M 110.667 256 Q 78.667 254.667 78.667 224 Q 78.667 193.333 78.667 160 Q 82 128 110.667 128 Q 139.333 128 270.667 128 L 270.667 96 Q 273.333 64 302.667 64 Q 312.667 64 398.667 128 Q 433.333 157.333 398.667 192 C 364 226.667 319.333 256 302.667 256 Q 271.333 256 270.667 224 L 270.667 192 L 174.667 192 Q 142.667 193.333 142.667 224 Q 142.667 254.667 110.667 256 Z " fill="none" mask="url(#_mask_v4ga5R2Uljf4AVUZ6Pn9dFNiTVEGhJRm)" vector-effect="non-scaling-stroke" stroke-width="38" stroke="rgb(0,0,0)" stroke-linejoin="miter" stroke-linecap="square" stroke-miterlimit="3"/><!--<mask id="_mask_uv2F3JzO6MhhzTBkgZRZNi3aCIOxhL58"><path d=" M 401.333 224 Q 433.333 225.333 433.333 256 Q 433.333 286.667 433.333 320 Q 430 352 401.333 352 Q 372.667 352 241.333 352 L 241.333 384 Q 238.667 416 209.333 416 Q 199.333 416 113.333 352 Q 78.667 322.667 113.333 288 C 148 253.333 192.667 224 209.333 224 Q 240.667 224 241.333 256 L 241.333 288 L 337.333 288 Q 369.333 286.667 369.333 256 Q 369.333 225.333 401.333 224 Z " fill="none" stroke="none"/></mask>--><path d=" M 401.333 224 Q 433.333 225.333 433.333 256 Q 433.333 286.667 433.333 320 Q 430 352 401.333 352 Q 372.667 352 241.333 352 L 241.333 384 Q 238.667 416 209.333 416 Q 199.333 416 113.333 352 Q 78.667 322.667 113.333 288 C 148 253.333 192.667 224 209.333 224 Q 240.667 224 241.333 256 L 241.333 288 L 337.333 288 Q 369.333 286.667 369.333 256 Q 369.333 225.333 401.333 224 Z " fill="none"/><path d=" M 401.333 224 Q 433.333 225.333 433.333 256 Q 433.333 286.667 433.333 320 Q 430 352 401.333 352 Q 372.667 352 241.333 352 L 241.333 384 Q 238.667 416 209.333 416 Q 199.333 416 113.333 352 Q 78.667 322.667 113.333 288 C 148 253.333 192.667 224 209.333 224 Q 240.667 224 241.333 256 L 241.333 288 L 337.333 288 Q 369.333 286.667 369.333 256 Q 369.333 225.333 401.333 224 Z " fill="none" mask="url(#_mask_uv2F3JzO6MhhzTBkgZRZNi3aCIOxhL58)" vector-effect="non-scaling-stroke" stroke-width="38" stroke="rgb(0,0,0)" stroke-linejoin="miter" stroke-linecap="square" stroke-miterlimit="3"/></g></svg>