<?xml version="1.0" encoding="UTF-8" standalone="no"?><svg xmlns="http://www.w3.org/2000/svg" xmlns:xlink="http://www.w3.org/1999/xlink" style="isolation:isolate" viewBox="0 0 512 512" width="512pt" height="512pt"><defs><clipPath id="_clipPath_DJ3gbcarz0M9r3IJQ5BKP3PuoIYVQm1v"><rect width="512" height="512"/></clipPath></defs><g clip-path="url(#_clipPath_DJ3gbcarz0M9r3IJQ5BKP3PuoIYVQm1v)"><path d=" M 110.667 256 Q 78.667 254.667 78.667 224 Q 78.667 193.333 78.667 160 Q 82 128 110.667 128 Q 139.333 128 270.667 128 L 270.667 96 Q 273.333 64 302.667 64 Q 312.667 64 398.667 128 Q 433.333 157.333 398.667 192 C 364 226.667 319.333 256 302.667 256 Q 271.333 256 270.667 224 L 270.667 192 L 174.667 192 Q 142.667 193.333 142.667 224 Q 142.667 254.667 110.667 256 Z " fill="rgb(0,0,0)"/><path d=" M 401.333 224 Q 433.333 225.333 433.333 256 Q 433.333 286.667 433.333 320 Q 430 352 401.333 352 Q 372.667 352 241.333 352 L 241.333 384 Q 238.667 416 209.333 416 Q 199.333 416 113.333 352 Q 78.667 322.667 113.333 288 C 148 253.333 192.667 224 209.333 224 Q 240.667 224 241.333 256 L 241.333 288 L 337.333 288 Q 369.333 286.667 369.333 256 Q 369.333 225.333 401.333 224 Z " fill="rgb(0,0,0)"/><circle vector-effect="non-scaling-stroke" cx="416" cy="160" r="64" fill="rgb(64,64,64)"/><path d=" M 400 128 Q 402.667 112 416 112 Q 429.333 112 432 128 L 432 192 Q 431.333 208 416 208 Q 400.667 208 400 192 L 400 128 Z " fill="rgb(128,128,128)"/></g></svg>