<?xml version="1.0" encoding="UTF-8" standalone="no"?><svg xmlns="http://www.w3.org/2000/svg" xmlns:xlink="http://www.w3.org/1999/xlink" style="isolation:isolate" viewBox="0 0 512 512" width="512pt" height="512pt"><defs><clipPath id="_clipPath_BtfMe3OXzwkuBN2nD4XjuVWgGZ7x7oiE"><rect width="512" height="512"/></clipPath></defs><g clip-path="url(#_clipPath_BtfMe3OXzwkuBN2nD4XjuVWgGZ7x7oiE)"><!--<mask id="_mask_pPfUvW6VqvxO78e9a0gs8thn6TZsB36V"><path d=" M 240 208 L 288 160 Q 320 128 336 128 Q 352 128 400.667 128 L 400.667 96 Q 402 80 416.667 80 L 464.667 128 Q 495.333 161.333 464.667 192 Q 434 222.667 416.667 240 Q 400.667 240 400.667 224 Q 400.667 208 400.667 192 Q 382.667 192 368 192 Q 353.333 192 320 224 L 288 256 L 320 288 Q 352.667 320 368 320 Q 383.333 320 400.667 320 L 400.667 288 Q 401.333 272 416.667 272 L 464.667 320 Q 495.333 353.333 464.667 384 Q 434 414.667 416.667 432 Q 400.667 431.333 400.667 416 Q 400.667 400.667 400.667 384 Q 350 384 336 384 Q 322 384 288 352 L 240 304 L 192 352 Q 160 384 144 384 Q 128 384 64.667 384 Q 32.667 381.333 32.667 352 Q 32.667 322.667 64.667 320 Q 96 320 112 320 Q 128 320 160 288 L 192 256 L 160 224 Q 130.667 192 112 192 Q 93.333 192 64.667 192 Q 32.667 188.667 32.667 160 Q 32.667 131.333 64.667 128 Q 129.333 128 144 128 Q 158.667 128 192 160 L 240 208 Z " fill="none" stroke="none"/></mask>--><path d=" M 240 208 L 288 160 Q 320 128 336 128 Q 352 128 400.667 128 L 400.667 96 Q 402 80 416.667 80 L 464.667 128 Q 495.333 161.333 464.667 192 Q 434 222.667 416.667 240 Q 400.667 240 400.667 224 Q 400.667 208 400.667 192 Q 382.667 192 368 192 Q 353.333 192 320 224 L 288 256 L 320 288 Q 352.667 320 368 320 Q 383.333 320 400.667 320 L 400.667 288 Q 401.333 272 416.667 272 L 464.667 320 Q 495.333 353.333 464.667 384 Q 434 414.667 416.667 432 Q 400.667 431.333 400.667 416 Q 400.667 400.667 400.667 384 Q 350 384 336 384 Q 322 384 288 352 L 240 304 L 192 352 Q 160 384 144 384 Q 128 384 64.667 384 Q 32.667 381.333 32.667 352 Q 32.667 322.667 64.667 320 Q 96 320 112 320 Q 128 320 160 288 L 192 256 L 160 224 Q 130.667 192 112 192 Q 93.333 192 64.667 192 Q 32.667 188.667 32.667 160 Q 32.667 131.333 64.667 128 Q 129.333 128 144 128 Q 158.667 128 192 160 L 240 208 Z " fill="none"/><path d=" M 240 208 L 288 160 Q 320 128 336 128 Q 352 128 400.667 128 L 400.667 96 Q 402 80 416.667 80 L 464.667 128 Q 495.333 161.333 464.667 192 Q 434 222.667 416.667 240 Q 400.667 240 400.667 224 Q 400.667 208 400.667 192 Q 382.667 192 368 192 Q 353.333 192 320 224 L 288 256 L 320 288 Q 352.667 320 368 320 Q 383.333 320 400.667 320 L 400.667 288 Q 401.333 272 416.667 272 L 464.667 320 Q 495.333 353.333 464.667 384 Q 434 414.667 416.667 432 Q 400.667 431.333 400.667 416 Q 400.667 400.667 400.667 384 Q 350 384 336 384 Q 322 384 288 352 L 240 304 L 192 352 Q 160 384 144 384 Q 128 384 64.667 384 Q 32.667 381.333 32.667 352 Q 32.667 322.667 64.667 320 Q 96 320 112 320 Q 128 320 160 288 L 192 256 L 160 224 Q 130.667 192 112 192 Q 93.333 192 64.667 192 Q 32.667 188.667 32.667 160 Q 32.667 131.333 64.667 128 Q 129.333 128 144 128 Q 158.667 128 192 160 L 240 208 Z " fill="none" mask="url(#_mask_pPfUvW6VqvxO78e9a0gs8thn6TZsB36V)" vector-effect="non-scaling-stroke" stroke-width="28" stroke="rgb(0,0,0)" stroke-linejoin="miter" stroke-linecap="square" stroke-miterlimit="3"/></g></svg>