<?xml version="1.0" encoding="UTF-8" standalone="no"?><svg xmlns="http://www.w3.org/2000/svg" xmlns:xlink="http://www.w3.org/1999/xlink" style="isolation:isolate" viewBox="0 0 512 512" width="512pt" height="512pt"><defs><clipPath id="_clipPath_O9rzAHVQ2WnfjjsWl0Tt15NF8WGXlKhs"><rect width="512" height="512"/></clipPath></defs><g clip-path="url(#_clipPath_O9rzAHVQ2WnfjjsWl0Tt15NF8WGXlKhs)"><!--<mask id="_mask_sssmoL6bAjaXiDUE8u0OIrfQwjKPDcoM"><path d=" M 96 192 Q 64 190.75 64 224 Q 64 257.25 64 288 Q 65 320 96 320 Q 127 320 128 320 L 192 384 Q 209 399 224 384 C 239 369 256 316.25 256 256 C 256 195.75 240 144 224 128 Q 208 112 192 128 L 128 192 L 96 192 Z " fill="none" stroke="none"/></mask>--><path d=" M 96 192 Q 64 190.75 64 224 Q 64 257.25 64 288 Q 65 320 96 320 Q 127 320 128 320 L 192 384 Q 209 399 224 384 C 239 369 256 316.25 256 256 C 256 195.75 240 144 224 128 Q 208 112 192 128 L 128 192 L 96 192 Z " fill="none"/><path d=" M 96 192 Q 64 190.75 64 224 Q 64 257.25 64 288 Q 65 320 96 320 Q 127 320 128 320 L 192 384 Q 209 399 224 384 C 239 369 256 316.25 256 256 C 256 195.75 240 144 224 128 Q 208 112 192 128 L 128 192 L 96 192 Z " fill="none" mask="url(#_mask_sssmoL6bAjaXiDUE8u0OIrfQwjKPDcoM)" vector-effect="non-scaling-stroke" stroke-width="50" stroke="rgb(0,0,0)" stroke-linejoin="miter" stroke-linecap="square" stroke-miterlimit="3"/><path d=" M 165.49 165.49 Q 185.289 145.691 210.745 165.49 L 256 210.745 L 301.255 165.49 Q 325.296 144.277 346.51 165.49 Q 367.723 186.704 346.51 210.745 L 301.255 256 L 346.51 301.255 Q 367.723 325.296 346.51 346.51 Q 325.296 367.723 301.255 346.51 L 256 301.255 L 210.745 346.51 Q 187.411 368.43 165.49 346.51 Q 143.57 324.589 165.49 301.255 L 210.745 256 L 165.49 210.745 Q 145.691 185.289 165.49 165.49 Z " fill="none" vector-effect="non-scaling-stroke" stroke-width="50" stroke="rgb(64,64,64)" stroke-linejoin="miter" stroke-linecap="square" stroke-miterlimit="3"/></g></svg>