<?xml version="1.0" encoding="UTF-8" standalone="no"?><svg xmlns="http://www.w3.org/2000/svg" xmlns:xlink="http://www.w3.org/1999/xlink" style="isolation:isolate" viewBox="0 0 512 512" width="512" height="512"><path d=" M 116.056 341.965 Q 109.228 352.168 114.056 361.965 C 118.884 371.762 125.712 373.824 130.056 373.965 Q 134.4 374.106 380.056 373.965 Q 390.15 373.246 396.056 365.965 C 401.962 358.684 400.462 348.965 396.056 341.965 Q 391.65 334.965 276.056 149.965 Q 267.275 137.965 256.056 137.965 Q 244.837 137.965 236.056 149.965 L 116.056 341.965 Z " fill="none"/><path d=" M 116.056 341.965 Q 109.228 352.168 114.056 361.965 C 118.884 371.762 125.712 373.824 130.056 373.965 Q 134.4 374.106 380.056 373.965 Q 390.15 373.246 396.056 365.965 C 401.962 358.684 400.462 348.965 396.056 341.965 Q 391.65 334.965 276.056 149.965 Q 267.275 137.965 256.056 137.965 Q 244.837 137.965 236.056 149.965 L 116.056 341.965 Z " fill="none"  vector-effect="non-scaling-stroke" stroke-width="20" stroke="rgb(64,64,64)" stroke-opacity="100" stroke-linejoin="miter" stroke-linecap="square"/><circle vector-effect="non-scaling-stroke" cx="256.00006293927777" cy="325.96474999999856" r="16.056211362692594" fill="rgb(0,0,0)"/><path d=" M 240.056 277.965 Q 240.369 293.965 256.056 293.965 Q 271.744 293.965 272.056 277.965 L 272.056 205.965 Q 271.447 189.965 256.056 189.965 Q 240.665 189.965 240.056 205.965 L 240.056 277.965 Z " fill="rgb(0,0,0)"/></svg>