<?xml version="1.0" encoding="UTF-8" standalone="no"?><svg xmlns="http://www.w3.org/2000/svg" xmlns:xlink="http://www.w3.org/1999/xlink" style="isolation:isolate" viewBox="0 0 512 512" width="512pt" height="512pt"><defs><clipPath id="_clipPath_03EyH3qUlbbtre5cYz7w3PcE0GUEmG7w"><rect width="512" height="512"/></clipPath></defs><g clip-path="url(#_clipPath_03EyH3qUlbbtre5cYz7w3PcE0GUEmG7w)"><!--<mask id="_mask_Fxfn2WNGXxsASHDi35CdqQ3IfAk5fdqc"><path d=" M 116 352 Q 109.172 362.203 114 372 C 118.828 381.797 125.656 383.859 130 384 Q 134.344 384.141 380 384 Q 390.094 383.281 396 376 C 401.906 368.719 400.406 359 396 352 Q 391.594 345 276 160 Q 267.219 148 256 148 Q 244.781 148 236 160 L 116 352 Z " fill="none" stroke="none"/></mask>--><path d=" M 116 352 Q 109.172 362.203 114 372 C 118.828 381.797 125.656 383.859 130 384 Q 134.344 384.141 380 384 Q 390.094 383.281 396 376 C 401.906 368.719 400.406 359 396 352 Q 391.594 345 276 160 Q 267.219 148 256 148 Q 244.781 148 236 160 L 116 352 Z " fill="none"/><path d=" M 116 352 Q 109.172 362.203 114 372 C 118.828 381.797 125.656 383.859 130 384 Q 134.344 384.141 380 384 Q 390.094 383.281 396 376 C 401.906 368.719 400.406 359 396 352 Q 391.594 345 276 160 Q 267.219 148 256 148 Q 244.781 148 236 160 L 116 352 Z " fill="none" mask="url(#_mask_Fxfn2WNGXxsASHDi35CdqQ3IfAk5fdqc)" vector-effect="non-scaling-stroke" stroke-width="8" stroke="rgb(64,64,64)" stroke-linejoin="miter" stroke-linecap="square" stroke-miterlimit="3"/><circle vector-effect="non-scaling-stroke" cx="255.9437886373074" cy="336" r="16.056211362692608" fill="rgb(0,0,0)"/><path d=" M 240 288 Q 240.313 304 256 304 Q 271.688 304 272 288 L 272 216 Q 271.391 200 256 200 Q 240.609 200 240 216 L 240 288 Z " fill="rgb(0,0,0)"/></g></svg>